# xmcd
#
# Track frame offsets:
#	150
#	15748
#	31107
#	47520
#	62112
#	83060
#	99697
#	119895
#	136503
#	157996
#	173357
#	190579
#	203131
#	224121
#	242116
#	258258
#	281408
#	299001
#	320412
#	336710
#
# Disc length: 4793 seconds
#
# Revision: 1
# Processed by: cddbd v1.5.2PL0 Copyright (c) Steve Scherf et al.
# Submitted via: audiograbber 1.83.01
#
DISCID=2712b714
DTITLE=George McCrae - Time For Emotions
DYEAR=2008
DGENRE=
TTITLE0=Time For Emotions
TTITLE1=Wanna Be Your Lover
TTITLE2=Do Something
TTITLE3=Rock Your Baby
TTITLE4=I Can't leave You Alon
TTITLE5=All Around The World
TTITLE6=Take This Love Of Mine
TTITLE7=Sunny Aruba
TTITLE8=I'll Take Care
TTITLE9=Let's Start Love
TTITLE10=Calling Love
TTITLE11=With All My Heart
TTITLE12=Love Comes Easy
TTITLE13=When A Girl Does Me
TTITLE14=If You Wanna Own Me
TTITLE15=Breathless
TTITLE16=Rock My No, 1's
TTITLE17=Do Something
TTITLE18=All Around The World
TTITLE19=Time For Emotions
EXTD=
EXTT0=
EXTT1=
EXTT2=
EXTT3=
EXTT4=
EXTT5=
EXTT6=
EXTT7=
EXTT8=
EXTT9=
EXTT10=
EXTT11=
EXTT12=
EXTT13=
EXTT14=
EXTT15=
EXTT16=
EXTT17=
EXTT18=
EXTT19=
PLAYORDER=
